<?xml version="1.0" encoding="UTF-8" standalone="no" ?>
<!DOCTYPE svg PUBLIC "-//W3C//DTD SVG 1.1//EN" "http://www.w3.org/Graphics/SVG/1.1/DTD/svg11.dtd">
<svg xmlns="http://www.w3.org/2000/svg" xmlns:xlink="http://www.w3.org/1999/xlink" version="1.1" width="1080" height="1080" viewBox="0 0 1080 1080" xml:space="preserve">
<desc>Created with Fabric.js 5.2.4</desc>
<defs>
</defs>
<g transform="matrix(1 0 0 1 540 540)" id="ca4bd3dc-e0fd-4c61-a3e5-0fe90eaa983a"  >
<rect style="stroke: none; stroke-width: 1; stroke-dasharray: none; stroke-linecap: butt; stroke-dashoffset: 0; stroke-linejoin: miter; stroke-miterlimit: 4; fill: rgb(255,255,255); fill-rule: nonzero; opacity: 1; visibility: hidden;" vector-effect="non-scaling-stroke"  x="-540" y="-540" rx="0" ry="0" width="1080" height="1080" />
</g>
<g transform="matrix(1 0 0 1 540 540)" id="077c5628-62c9-4870-a135-26e2505db946"  >
</g>
<g transform="matrix(54 0 0 54 540 540)"  >
<path style="stroke: none; stroke-width: 1; stroke-dasharray: none; stroke-linecap: butt; stroke-dashoffset: 0; stroke-linejoin: miter; stroke-miterlimit: 4; fill: rgb(255,255,255); fill-rule: nonzero; opacity: 1;"  transform=" translate(-10.02, -10.44)" d="M 6.76 6.8 L 0.3799999999999999 7.76 C 0.1599999999999999 7.8 -1.1102230246251565e-16 7.9799999999999995 -1.1102230246251565e-16 8.2 C -1.1102230246251565e-16 8.319999999999999 0.03999999999999989 8.44 0.11999999999999988 8.52 L 0.11999999999999988 8.52 L 4.76 13.28 L 3.6599999999999997 19.939999999999998 C 3.6599999999999997 19.959999999999997 3.6599999999999997 19.979999999999997 3.6599999999999997 20.019999999999996 C 3.6599999999999997 20.259999999999994 3.86 20.459999999999997 4.1 20.459999999999997 C 4.199999999999999 20.459999999999997 4.26 20.439999999999998 4.34 20.4 L 4.34 20.4 L 10.04 17.279999999999998 L 15.719999999999999 20.4 C 15.78 20.439999999999998 15.86 20.459999999999997 15.94 20.459999999999997 C 16.18 20.459999999999997 16.38 20.259999999999998 16.38 20.019999999999996 C 16.38 19.979999999999997 16.38 19.959999999999997 16.38 19.939999999999998 L 16.38 19.939999999999998 L 15.28 13.279999999999998 L 19.919999999999998 8.519999999999998 C 19.999999999999996 8.439999999999998 20.04 8.319999999999999 20.04 8.199999999999998 C 20.04 7.979999999999998 19.88 7.799999999999997 19.68 7.759999999999997 L 19.66 7.759999999999997 L 13.280000000000001 6.799999999999997 L 10.32 0.6199999999999974 C 10.26 0.49999999999999745 10.14 0.41999999999999743 10 0.41999999999999743 C 9.86 0.41999999999999743 9.74 0.49999999999999745 9.68 0.6199999999999974 L 9.68 0.6199999999999974 z" stroke-linecap="round" />
</g>
</svg>